<svg width="50" height="57" viewBox="0 0 50 57" fill="none" xmlns="http://www.w3.org/2000/svg">
<g clip-path="url(#clip0_782_302)">
<path fill-rule="evenodd" clip-rule="evenodd" d="M19.1492 45.0398C19.1492 44.9802 19.1492 44.9207 19.1492 44.8658C19.1198 42.9154 19.824 41.025 21.1222 39.5691L14.8276 33.2791C14.3334 32.7868 13.6642 32.5104 12.9667 32.5104C12.2691 32.5104 11.6 32.7868 11.1058 33.2791C10.6149 33.7731 10.3393 34.4413 10.3393 35.1377C10.3393 35.8342 10.6149 36.5023 11.1058 36.9964L19.1492 45.0398ZM15.4273 50.3044C15.663 50.3726 15.8829 50.4866 16.0745 50.6398C16.2661 50.793 16.4257 50.9825 16.5441 51.1974C16.6625 51.4123 16.7374 51.6484 16.7645 51.8922C16.7916 52.136 16.7705 52.3828 16.7023 52.6185C16.634 52.8542 16.52 53.0741 16.3668 53.2657C16.2136 53.4573 16.0241 53.6168 15.8092 53.7352C15.5944 53.8536 15.3583 53.9285 15.1144 53.9557C14.8706 53.9828 14.6238 53.9617 14.3881 53.8934C10.9878 52.9723 7.85971 51.2449 5.26892 48.8577C2.9235 46.5913 1.15312 43.7976 0.105027 40.709C-0.0417947 40.2456 -0.00264026 39.7433 0.214211 39.3083C0.431063 38.8732 0.808612 38.5395 1.26703 38.3778C1.72544 38.2161 2.22878 38.239 2.67062 38.4417C3.11245 38.6443 3.45815 39.0109 3.6346 39.4638C4.4868 41.9964 5.93063 44.2893 7.84628 46.1522C10.0005 48.1336 12.6012 49.5658 15.4273 50.3272V50.3044ZM29.2435 10.6184C29.0185 10.5158 28.8161 10.3695 28.6481 10.1881C28.4801 10.0067 28.3497 9.79366 28.2647 9.56147C28.1796 9.32927 28.1415 9.0825 28.1526 8.83546C28.1636 8.58843 28.2236 8.34605 28.3291 8.12238C28.4346 7.89872 28.5834 7.69822 28.767 7.53253C28.9505 7.36683 29.1652 7.23924 29.3984 7.15714C29.6317 7.07505 29.8789 7.04009 30.1258 7.0543C30.3727 7.0685 30.6143 7.13159 30.8366 7.2399C32.5203 8.02331 34.0896 9.03206 35.5015 10.2384C36.8433 11.387 38.0189 12.7167 38.9944 14.1892C39.1388 14.394 39.2407 14.6257 39.2939 14.8706C39.3471 15.1154 39.3507 15.3685 39.3043 15.6148C39.2579 15.861 39.1625 16.0955 39.0239 16.3042C38.8852 16.513 38.7061 16.6918 38.497 16.83C38.288 16.9682 38.0534 17.0631 37.807 17.109C37.5606 17.1548 37.3076 17.1508 37.0628 17.097C36.818 17.0433 36.5865 16.941 36.382 16.7962C36.1775 16.6513 36.0042 16.4669 35.8723 16.2538C35.0892 15.0721 34.1464 14.0045 33.0706 13.0813C31.9124 12.092 30.6248 11.2649 29.2435 10.623V10.6184ZM31.1525 4.03536C30.6765 3.89755 30.2748 3.57632 30.0357 3.14234C29.7966 2.70835 29.7397 2.19716 29.8775 1.72122C30.0153 1.24528 30.3365 0.843571 30.7705 0.604472C31.2045 0.365372 31.7157 0.308466 32.1916 0.44627C35.5927 1.36896 38.722 3.0961 41.3154 5.48198C43.6604 7.75513 45.4291 10.555 46.4747 13.649C46.6216 14.1124 46.5824 14.6147 46.3656 15.0498C46.1487 15.4848 45.7712 15.8185 45.3127 15.9802C44.8543 16.1419 44.351 16.119 43.9091 15.9164C43.4673 15.7137 43.1216 15.3471 42.9452 14.8942C42.0897 12.3698 40.6461 10.0851 38.7335 8.22873C36.5811 6.24071 33.9803 4.80211 31.1525 4.03536ZM42.35 33.0365C40.9151 33.6392 39.5967 34.4882 38.4542 35.5452C37.5408 36.3806 36.8808 37.4562 36.5498 38.649C36.2829 39.7165 36.3729 40.842 36.8062 41.8535C37.1975 42.7442 37.7571 43.5509 38.4542 44.2295L37.5386 45.0764C32.8188 40.0132 35.3092 35.1652 41.2513 32.1438L39.4888 30.4682C39.3439 30.3226 39.1911 30.1851 39.031 30.0562C38.9377 30.0228 38.8509 29.9732 38.7747 29.9097C37.7748 29.273 36.5892 28.9923 35.4099 29.1132C34.1988 29.2229 33.0647 29.7543 32.2054 30.6147L31.862 30.9581H31.8346L22.3812 40.4573C22.31 40.5298 22.2262 40.5887 22.134 40.6312L21.9646 40.8052C21.1157 41.6522 20.5852 42.7664 20.463 43.9594C20.4057 44.5301 20.4382 45.1063 20.5592 45.6669C20.8092 46.5527 21.2821 47.3596 21.9325 48.0108L27.6183 53.6966C29.4663 55.5554 31.974 56.6085 34.595 56.6265C35.8785 56.6366 37.1511 56.3903 38.3381 55.9022C39.5251 55.414 40.6027 54.6937 41.5077 53.7836L45.8201 49.4712C46.8802 48.5044 47.72 47.321 48.2824 46.0011C48.8448 44.6812 49.1167 43.2557 49.0796 41.8215V41.7711L49.0155 28.3899C49.0109 28.3442 49.0109 28.2982 49.0155 28.2525L49.9906 28.312L49.0201 28.2525C49.1482 26.1696 48.4112 24.8237 47.4315 24.224C47.0911 24.0107 46.7019 23.8878 46.3008 23.8669C45.9198 23.8461 45.5403 23.9284 45.2021 24.1049C44.3369 24.5627 43.6822 25.6294 43.6822 27.3827C43.6822 27.7856 43.6822 28.8522 43.6547 29.864C43.6531 30.6742 43.5719 31.4822 43.4121 32.2765C43.374 32.4638 43.2816 32.6357 43.1466 32.7709C43.0433 32.8771 42.9168 32.958 42.777 33.0073C42.6372 33.0565 42.488 33.0728 42.3409 33.0548L42.35 33.0365ZM21.9234 38.649L25.6361 34.9271L15.5647 24.8557C15.0744 24.378 14.418 24.1089 13.7335 24.1049C13.3878 24.1031 13.0452 24.1697 12.7254 24.3009C12.4057 24.4321 12.115 24.6254 11.8703 24.8695C11.3799 25.3656 11.1049 26.0351 11.1049 26.7327C11.1049 27.4303 11.3799 28.0997 11.8703 28.5959L21.9417 38.6673L21.9234 38.649ZM26.6386 33.9337L30.3605 30.2119L17.0845 16.9359C16.5884 16.4456 15.9189 16.1706 15.2213 16.1706C14.5237 16.1706 13.8543 16.4456 13.3581 16.9359C12.8677 17.4321 12.5927 18.1015 12.5927 18.7991C12.5927 19.4967 12.8677 20.1662 13.3581 20.6623L26.6341 33.9383L26.6386 33.9337ZM31.5553 29.5893C33.0287 28.3005 34.9219 27.594 36.8794 27.6025H37.0076L25.2424 15.8326C24.7476 15.3415 24.0786 15.0658 23.3814 15.0658C22.6842 15.0658 22.0153 15.3415 21.5205 15.8326C21.0293 16.3274 20.7537 16.9964 20.7537 17.6936C20.7537 18.3908 21.0293 19.0597 21.5205 19.5545L31.5507 29.5939L31.5553 29.5893Z" fill="#ECE7E1"/>
</g>
<defs>
<clipPath id="clip0_782_302">
<rect width="50" height="56.2534" fill="white" transform="translate(0 0.373047)"/>
</clipPath>
</defs>
</svg>
