<svg width="240" height="77" viewBox="0 0 240 77" fill="none" xmlns="http://www.w3.org/2000/svg">
<g style="mix-blend-mode:difference">
<path d="M20.832 58H0.318V0.982H20.286C37.134 0.982 48.756 12.604 48.756 29.608C48.756 46.378 37.368 58 20.832 58ZM19.35 10.186H10.302V48.796H19.896C31.284 48.796 38.226 41.464 38.226 29.608C38.226 17.518 31.128 10.186 19.35 10.186ZM68.1183 59.014C59.9283 59.014 54.9363 54.256 54.9363 47.002C54.9363 39.904 60.0843 35.458 69.2103 34.756L80.7543 33.898V33.04C80.7543 27.814 77.6343 25.708 72.7983 25.708C67.1823 25.708 64.0623 28.048 64.0623 32.104H55.9503C55.9503 23.758 62.8143 18.298 73.2663 18.298C83.6403 18.298 90.0363 23.914 90.0363 34.6V58H81.6903L80.9883 52.306C79.3503 56.284 74.1243 59.014 68.1183 59.014ZM71.2383 51.838C77.0883 51.838 80.8323 48.328 80.8323 42.4V40.372L72.7983 40.996C66.8703 41.542 64.6083 43.492 64.6083 46.612C64.6083 50.122 66.9483 51.838 71.2383 51.838ZM94.9643 75.862V67.906H100.658C104.402 67.906 106.742 67.048 108.38 62.524L109.472 59.638L93.9503 19.468H104.012L113.918 47.548L124.37 19.468H134.198L115.322 66.58C112.436 73.756 108.38 76.72 102.062 76.72C99.4103 76.72 97.0703 76.408 94.9643 75.862ZM135.59 38.656C135.59 26.644 144.248 18.376 156.182 18.376C168.116 18.376 176.774 26.644 176.774 38.656C176.774 50.668 168.116 58.936 156.182 58.936C144.248 58.936 135.59 50.668 135.59 38.656ZM145.106 38.656C145.106 45.676 149.63 50.434 156.182 50.434C162.734 50.434 167.258 45.676 167.258 38.656C167.258 31.636 162.734 26.878 156.182 26.878C149.63 26.878 145.106 31.636 145.106 38.656ZM195.782 59.014C187.592 59.014 182.6 54.256 182.6 47.002C182.6 39.904 187.748 35.458 196.874 34.756L208.418 33.898V33.04C208.418 27.814 205.298 25.708 200.462 25.708C194.846 25.708 191.726 28.048 191.726 32.104H183.614C183.614 23.758 190.478 18.298 200.93 18.298C211.304 18.298 217.7 23.914 217.7 34.6V58H209.354L208.652 52.306C207.014 56.284 201.788 59.014 195.782 59.014ZM198.902 51.838C204.752 51.838 208.496 48.328 208.496 42.4V40.372L200.462 40.996C194.534 41.542 192.272 43.492 192.272 46.612C192.272 50.122 194.612 51.838 198.902 51.838ZM233.445 58.936C230.013 58.936 227.127 56.128 227.127 52.774C227.127 49.342 230.013 46.534 233.445 46.534C236.877 46.534 239.763 49.342 239.763 52.774C239.763 56.128 236.877 58.936 233.445 58.936Z" fill="#ECE7E1"/>
</g>
</svg>
